# xmcd CD database file
#
# Track frame offsets:
#	150
#	19594
#	41152
#	60971
#	73578
#	94932
#	111545
#	127148
#	149582
#	175018
#	187444
#	202245
#	224511
#	236513
#	254380
#	273855
#	294361
#	326084
#	339964
#
# Disc length: 4672 seconds
#
# Revision: 5
# Processed by: cddbd v1.5.2PL0 Copyright (c) Steve Scherf et al.
# Submitted via: CDex 1.70beta2
#
DISCID=36123e13
DTITLE=Various Artist - The Very Best of Smooth Jazz 2
DYEAR=2008
DGENRE=Jazz
TTITLE0=Lionel Richie - All Night Long
TTITLE1=Randy Crawford - Street Life
TTITLE2=Sergio Mendes and The Black Eyed Peas - Mas Que Nada
TTITLE3=Astrud Gilberto - The Girl From Ipanema
TTITLE4=Shirley Bassey - You Only Live Twice
TTITLE5=Leon Jean Marie - Bent Out Of Shape
TTITLE6=Earth, Wind and Fire - After The Love Has Gone
TTITLE7=Bill Withers and Grover Washington - Just The Two Of Us
TTITLE8=George Benson and Al Jarreau - Breezin'
TTITLE9=Dinah Washington - Mad About The Boy
TTITLE10=Isaac Hayes - Shaft Theme
TTITLE11=Carmen Mcrae - How Long Has This Been Going On
TTITLE12=Temptations - My Girl
TTITLE13=Chaka Khan - Sweet Thing
TTITLE14=Mica Paris - My One Temptation
TTITLE15=Sia - Breathe Me
TTITLE16=Courtney Pine - Children Of The Ghetto
TTITLE17=Alison Moyet - That Ole Devil Called Love
TTITLE18=Louis Armstrong - What A Wonderful World
EXTD=YEAR: 2008
EXTT0=
EXTT1=
EXTT2=
EXTT3=
EXTT4=
EXTT5=
EXTT6=
EXTT7=
EXTT8=
EXTT9=
EXTT10=
EXTT11=
EXTT12=
EXTT13=
EXTT14=
EXTT15=
EXTT16=
EXTT17=
EXTT18=
PLAYORDER=
